<?xml version="1.0" standalone="no"?>
<!DOCTYPE svg PUBLIC "-//W3C//DTD SVG 20010904//EN"
 "http://www.w3.org/TR/2001/REC-SVG-20010904/DTD/svg10.dtd">
<svg version="1.0" xmlns="http://www.w3.org/2000/svg"
 width="512.000000pt" height="512.000000pt" viewBox="0 0 512.000000 512.000000"
 preserveAspectRatio="xMidYMid meet">
<metadata>
Created by potrace 1.14, written by Peter Selinger 2001-2017
</metadata>
<g transform="translate(0.000000,512.000000) scale(0.100000,-0.100000)"
fill="#000000" stroke="none">
<path d="M2320 5117 c-3 -3 -32 -7 -65 -11 -33 -3 -71 -8 -85 -11 -14 -2 -41
-7 -60 -9 -69 -10 -257 -57 -350 -88 -547 -181 -1012 -536 -1336 -1019 -151
-226 -313 -601 -359 -834 -51 -255 -59 -336 -60 -565 0 -156 11 -355 20 -370
2 -3 6 -26 10 -50 11 -81 26 -154 52 -250 218 -813 829 -1472 1623 -1751 98
-35 324 -94 390 -103 25 -3 54 -8 65 -10 211 -40 561 -38 813 5 1073 181 1919
1027 2096 2094 24 142 27 178 31 375 7 260 -19 476 -84 720 -28 106 -85 265
-124 351 -67 147 -82 176 -140 273 -315 535 -816 939 -1407 1134 -90 30 -270
76 -335 85 -40 6 -93 16 -130 23 -35 7 -558 17 -565 11z"/>
</g>
</svg>
